<?xml version="1.0" encoding="UTF-8"?>
<svg width="48px" height="32px" viewBox="0 0 48 32" version="1.1" xmlns="http://www.w3.org/2000/svg" xmlns:xlink="http://www.w3.org/1999/xlink">
    <!-- Generator: Sketch 55.1 (78136) - https://sketchapp.com -->
    <title>Group</title>
    <desc>Created with Sketch.</desc>
    <defs>
        <rect id="path-1" x="0" y="0" width="48" height="32" rx="3"></rect>
        <linearGradient x1="0%" y1="27.7777778%" x2="100%" y2="72.2222222%" id="linearGradient-3">
            <stop stop-color="#000021" offset="0%"></stop>
            <stop stop-color="#00407B" offset="100%"></stop>
        </linearGradient>
    </defs>
    <g id="Page-1" stroke="none" stroke-width="1" fill="none" fill-rule="evenodd">
        <g id="Artboard" transform="translate(-119.000000, -148.000000)">
            <g id="Group" transform="translate(119.000000, 148.000000)">
                <g id="Segmento">
                    <mask id="mask-2" fill="white">
                        <use xlink:href="#path-1"></use>
                    </mask>
                    <use id="Mask" fill="#E6E6E6" xlink:href="#path-1"></use>
                    <g id="⌘/Cores/Gradientes/Azul-Marinho" mask="url(#mask-2)" fill="url(#linearGradient-3)">
                        <rect id="Bg" x="0" y="0" width="48" height="32"></rect>
                    </g>
                </g>
                <g id="⌘/Bandeiras/Visa-(Branco)" transform="translate(8.000000, 8.000000)">
                    <g id="Visa">
                        <rect id="Container" x="0" y="0" width="32" height="16"></rect>
                        <path d="M15.8422083,3.1720517 L13.7755416,12.8424879 L11.2783868,12.8424879 L13.3450535,3.1720517 L15.8422083,3.1720517 Z M26.3907857,9.4184168 L27.7113808,5.79402262 L28.4720177,9.4184168 L26.3907857,9.4184168 Z M29.1897677,12.8424879 L31.5,12.8424879 L29.4762203,3.1720517 L27.3383451,3.1720517 C26.8641608,3.1720517 26.4482381,3.44426494 26.275881,3.87399031 L22.5155834,12.8279483 L25.1422083,12.8279483 L25.6592796,11.3812601 L28.8733751,11.3812601 L29.1897677,12.8424879 Z M22.6450535,9.69063005 C22.6596189,7.14054927 19.1145654,6.99757674 19.1291308,5.86510501 C19.142887,5.52180937 19.4730358,5.14943457 20.1907857,5.04846527 C20.5492561,5.00565428 21.5397024,4.9628433 22.6596189,5.47899838 L23.1046724,3.42972536 C22.5018272,3.21486268 21.7266249,3 20.7653093,3 C18.2964761,3 16.5453928,4.31825525 16.5308275,6.19466882 C16.5170713,7.58481422 17.7794049,8.35864297 18.7269642,8.83117932 C19.7028452,9.30371567 20.032994,9.60500808 20.032994,10.0347334 C20.0184286,10.6793215 19.2577917,10.9660743 18.5400418,10.9798061 C17.2777082,10.9943457 16.5453928,10.6365105 15.9716784,10.3642973 L15.5120595,12.4846527 C16.1003393,12.7568659 17.1765596,12.9854604 18.2964761,13 C20.923101,13 22.6304881,11.6962843 22.6450535,9.69063005 L22.6450535,9.69063005 Z M12.2688332,3.1720517 L8.20670843,12.8424879 L5.56632733,12.8424879 L3.57167841,5.13489499 C3.45677369,4.66235864 3.34186896,4.49030695 2.9825894,4.28917609 C2.36598799,3.95961228 1.37554163,3.64458805 0.5,3.45880452 L0.557452362,3.1720517 L4.82025581,3.1720517 C5.36564866,3.1720517 5.85358914,3.52988691 5.96768468,4.16074313 L7.0155834,9.74798061 L9.6422083,3.1720517 L12.2688332,3.1720517 Z" id="Fill-1" fill="#FFFFFF"></path>
                    </g>
                </g>
            </g>
        </g>
    </g>
</svg>