<?xml version="1.0" encoding="UTF-8"?>
<svg width="32px" height="32px" viewBox="0 0 32 32" version="1.1" xmlns="http://www.w3.org/2000/svg" xmlns:xlink="http://www.w3.org/1999/xlink">
    <!-- Generator: Sketch 52.6 (67491) - http://www.bohemiancoding.com/sketch -->
    <title>Group 16</title>
    <desc>Created with Sketch.</desc>
    <g id="Page-1" stroke="none" stroke-width="1" fill="none" fill-rule="evenodd">
        <g id="cenario_1_cartao_valido-copy" transform="translate(-43.000000, -112.000000)">
            <g id="Group-16" transform="translate(43.000000, 112.000000)">
                <path d="M3.81350915,4.34405161 C1.14845055,4.99569491 -0.493716252,7.67314078 0.133509147,10.3440516 L4.33350915,28.0240516 C5.00754477,30.6688452 7.67797793,32.2844573 10.3335091,31.6540516 L28.0835091,27.4440516 C30.7485677,26.7924083 32.3907345,24.1149624 31.7635091,21.4440516 L27.5335091,3.80405161 C26.877364,1.14304816 24.201332,-0.493791368 21.5335091,0.134051609 L3.81350915,4.34405161 Z" id="Path" fill="#EE7623" fill-rule="nonzero"></path>
                <path d="M12.2735091,5.34405161 L23.9235091,5.34405161 C25.5306578,5.34405161 26.8335091,6.64690299 26.8335091,8.25405161 L26.8335091,19.9040516 C26.8335091,21.5112002 25.5306578,22.8140516 23.9235091,22.8140516 L12.2735091,22.8140516 C11.4965444,22.822062 10.7486441,22.5190135 10.1964075,21.972412 C9.64417098,21.4258105 9.33346785,20.6810577 9.33350915,19.9040516 L9.33350915,8.25405161 C9.33350915,6.64690299 10.6363605,5.34405161 12.2435091,5.34405161" id="Path" fill="#002169" fill-rule="nonzero"></path>
                <rect id="Rectangle" fill="#FFDA00" fill-rule="nonzero" x="10.8135091" y="14.0740516" width="1.36" height="5.83"></rect>
                <path d="M18.2635091,15.4040516 C17.64064,15.3876686 17.0240867,15.5323348 16.4735091,15.8240516 L16.7235091,16.6840516 C17.1233597,16.4567763 17.5736679,16.3330274 18.0335091,16.3240516 C18.8335091,16.3240516 19.0335091,16.7240516 19.0335091,16.9340516 C17.2735091,16.9340516 16.1835091,17.4940516 16.1835091,18.6240516 C16.1957949,19.0030655 16.3635049,19.3603228 16.6472451,19.6119058 C16.9309853,19.8634887 17.30575,19.9872257 17.6835091,19.9540516 C18.1966095,19.9734859 18.692862,19.7691466 19.0435091,19.3940516 L19.1935091,19.8540516 L20.3335091,19.8540516 L20.3335091,17.3140516 C20.3809067,16.7780968 20.1819473,16.2496809 19.7928368,15.8780803 C19.4037262,15.5064797 18.8667155,15.3320442 18.3335091,15.4040516 M19.1135091,18.2940516 C19.1216004,18.3671618 19.1216004,18.4409415 19.1135091,18.5140516 L19.1135091,18.5740516 C18.9615687,18.9178837 18.6193944,19.1381338 18.2435091,19.1340516 C18.0815276,19.1545143 17.9186819,19.1032666 17.7976121,18.9937273 C17.6765423,18.884188 17.6093062,18.7272664 17.6135091,18.5640516 C17.6135091,18.1540516 17.9635091,17.9440516 18.4935091,17.8640516 C18.6266121,17.8529675 18.7604062,17.8529675 18.8935091,17.8640516 L19.1635091,17.8640516 L19.1135091,18.2940516 Z" id="Shape" fill="#FFDA00" fill-rule="nonzero"></path>
                <path d="M24.0335091,15.5340516 L24.0335091,18.0940516 C24.049562,18.1866947 24.049562,18.2814085 24.0335091,18.3740516 C23.8993865,18.7100206 23.5752506,18.9313816 23.2135091,18.9340516 C22.6535091,18.9340516 22.4135091,18.5240516 22.4135091,17.8440516 L22.4135091,15.5340516 L21.0835091,15.5340516 L21.0835091,18.0840516 C21.074868,18.3794685 21.1188882,18.6740647 21.2135091,18.9540516 C21.2824334,19.1740413 21.3946309,19.3780367 21.5435091,19.5540516 C21.6887457,19.705437 21.8665856,19.8217169 22.0635091,19.8940516 C22.2757713,19.9675199 22.4988931,20.0047069 22.7235091,20.0040516 C22.909857,20.0057003 23.0953527,19.9787191 23.2735091,19.9240516 C23.4199261,19.8802943 23.5608456,19.8199002 23.6935091,19.7440516 C23.800329,19.6771799 23.8978403,19.5964809 23.9835091,19.5040516 C24.0504803,19.4339406 24.1138933,19.360515 24.1735091,19.2840516 L24.3435091,19.9040516 L25.4235091,19.9040516 L25.4235091,15.5340516 L24.0335091,15.5340516 Z" id="Path" fill="#FFDA00" fill-rule="nonzero"></path>
                <path d="M13.4535091,14.0740516 L13.4535091,15.5340516 L12.8335091,15.5340516 L12.8335091,16.5340516 L13.4535091,16.5340516 L13.4535091,18.3040516 C13.41238,18.7681787 13.5441463,19.2311414 13.8235091,19.6040516 C14.1122747,19.8752033 14.4976849,20.0192819 14.8935091,20.0040516 C15.1427187,20.0184557 15.3920245,19.9774739 15.6235091,19.8840516 L15.6235091,18.8840516 C15.5344139,18.9020989 15.4426044,18.9020989 15.3535091,18.8840516 C14.8835091,18.8840516 14.7735091,18.5940516 14.7735091,18.0540516 L14.7735091,16.5340516 L15.6135091,16.5340516 L15.6135091,15.5340516 L14.7735091,15.5340516 L14.7735091,14.0740516 L13.4535091,14.0740516 Z" id="Path" fill="#FFDA00" fill-rule="nonzero"></path>
                <polygon id="Path" fill="#FFDA00" points="23.5335091 14.0740516 22.7135091 15.2540516 23.6635091 15.2540516 24.8135091 14.0740516"></polygon>
            </g>
        </g>
    </g>
</svg>