<?xml version="1.0" encoding="UTF-8"?>
<svg width="48px" height="32px" viewBox="0 0 48 32" version="1.1" xmlns="http://www.w3.org/2000/svg" xmlns:xlink="http://www.w3.org/1999/xlink">
    <!-- Generator: Sketch 55.1 (78136) - https://sketchapp.com -->
    <title>Group 2</title>
    <desc>Created with Sketch.</desc>
    <defs>
        <rect id="path-1" x="0" y="0" width="48" height="32" rx="3"></rect>
        <linearGradient x1="0%" y1="27.7777778%" x2="100%" y2="72.2222222%" id="linearGradient-3">
            <stop stop-color="#000000" offset="0%"></stop>
            <stop stop-color="#5A5A5A" offset="100%"></stop>
        </linearGradient>
    </defs>
    <g id="Page-1" stroke="none" stroke-width="1" fill="none" fill-rule="evenodd">
        <g id="Artboard" transform="translate(-119.000000, -196.000000)">
            <g id="Group-2" transform="translate(119.000000, 196.000000)">
                <g id="Segmento-Copy">
                    <mask id="mask-2" fill="white">
                        <use xlink:href="#path-1"></use>
                    </mask>
                    <use id="Mask" fill="#E6E6E6" xlink:href="#path-1"></use>
                    <g id="⌘/Cores/Gradientes/Black" mask="url(#mask-2)" fill="url(#linearGradient-3)">
                        <rect id="Bg" x="0" y="0" width="48" height="32"></rect>
                    </g>
                </g>
                <g id="⌘/Bandeiras/Mastercard" transform="translate(8.000000, 8.000000)">
                    <g id="Mastercard">
                        <rect id="Container" x="0" y="0" width="32" height="16"></rect>
                        <g id="Master" transform="translate(4.000000, 1.000000)">
                            <path d="M11.6058073,0.86858171 C12.8896232,-0.0153494647 14.4269979,-0.5 16.0387913,-0.5 C20.2728785,-0.5 23.7116145,2.83199241 23.7116145,6.94999981 C23.7116145,11.0680072 20.2728785,14.3999996 16.0387913,14.3999996 C14.4269979,14.3999996 12.8896231,13.9153491 11.6058073,13.0314179 C10.3219914,13.9153491 8.78461667,14.3999996 7.17282325,14.3999996 C2.93873598,14.3999996 -0.5,11.0680072 -0.5,6.94999981 C-0.5,2.83199241 2.93873598,-0.5 7.17282325,-0.5 C8.78461665,-0.5 10.3219914,-0.0153494647 11.6058073,0.86858171 Z" id="Stroke" stroke="#FFFFFF" fill="#F16522"></path>
                            <polygon id="Fill-1" fill="#F16522" points="8.46754355 12.4144363 14.744162 12.4144363 14.744162 1.48556166 8.46754355 1.48556166"></polygon>
                            <path d="M8.86605901,6.94999981 C8.86605901,4.73294634 9.93741049,2.75831423 11.6056253,1.48582251 C10.3855129,0.555365282 8.84604225,0 7.17282325,0 C3.21132488,0 0,3.11180864 0,6.94999981 C0,10.788191 3.21132488,13.8999996 7.17282325,13.8999996 C8.84604225,13.8999996 10.3855129,13.3446343 11.6056253,12.4141771 C9.93741049,11.1416854 8.86605901,9.16705327 8.86605901,6.94999981" id="Fill-2" fill="#E52523"></path>
                            <path d="M23.2116145,6.94999981 C23.2116145,10.788191 20.0002897,13.8999996 16.0387913,13.8999996 C14.3655723,13.8999996 12.8261016,13.3446343 11.6059892,12.4141771 C13.274204,11.1416854 14.3455555,9.16705327 14.3455555,6.94999981 C14.3455555,4.73294634 13.274204,2.75831423 11.6059892,1.48582251 C12.8261016,0.555365282 14.3655723,0 16.0387913,0 C20.0002897,0 23.2116145,3.11180864 23.2116145,6.94999981" id="Fill-4" fill="#F89E1B"></path>
                        </g>
                    </g>
                </g>
            </g>
        </g>
    </g>
</svg>