<?xml version="1.0" encoding="UTF-8"?>
<svg width="48px" height="32px" viewBox="0 0 48 32" version="1.1" xmlns="http://www.w3.org/2000/svg" xmlns:xlink="http://www.w3.org/1999/xlink">
    <!-- Generator: Sketch 55.1 (78136) - https://sketchapp.com -->
    <title>Group 3</title>
    <desc>Created with Sketch.</desc>
    <defs>
        <rect id="path-1" x="0" y="0" width="48" height="32" rx="3"></rect>
        <linearGradient x1="0%" y1="27.7777778%" x2="100%" y2="72.2222222%" id="linearGradient-3">
            <stop stop-color="#000000" offset="0%"></stop>
            <stop stop-color="#5A5A5A" offset="100%"></stop>
        </linearGradient>
        <linearGradient x1="97.5862536%" y1="71.1494461%" x2="-5.55111512e-14%" y2="27.7777778%" id="linearGradient-4">
            <stop stop-color="#991613" offset="0%"></stop>
            <stop stop-color="#EB1520" offset="100%"></stop>
        </linearGradient>
    </defs>
    <g id="Page-1" stroke="none" stroke-width="1" fill="none" fill-rule="evenodd">
        <g id="Artboard" transform="translate(-119.000000, -244.000000)">
            <g id="Group-3" transform="translate(119.000000, 244.000000)">
                <g id="Segmento-Copy-2">
                    <mask id="mask-2" fill="white">
                        <use xlink:href="#path-1"></use>
                    </mask>
                    <use id="Mask" fill="#E6E6E6" xlink:href="#path-1"></use>
                    <g id="Segmento" mask="url(#mask-2)">
                        <rect id="Bg" fill="url(#linearGradient-3)" x="0" y="0" width="48" height="32"></rect>
                        <rect id="BG" fill="url(#linearGradient-4)" x="0" y="0" width="48" height="32"></rect>
                    </g>
                </g>
                <g id="foreground" transform="translate(5.000000, 8.000000)">
                    <g id="Logo" transform="translate(0.333333, 0.000000)">
                        <path d="M3.09010196,2.5705676 C2.90667162,3.4426419 2.20785635,6.85777503 1.55504314,10.0546873 C0.991691228,12.8155046 0.463014241,15.40942 0.328359959,16.0685903 L30.4511587,16.0713643 C32.2932062,16.0635046 33.8179781,15.5201486 34.1742052,13.7686027 C34.5216479,12.0567018 36.651844,1.68785965 36.9438068,0.268268318 L6.81511331,0.268268318 C4.9767645,0.274278638 3.4381226,0.911488132 3.09010196,2.5705676" id="Fill-1" fill="#B60F0C"></path>
                        <path d="M34.1742167,13.7685796 C33.8179897,15.5201255 32.2932178,16.0634815 30.4511703,16.0713412 L0.328371517,16.0685672 C0.462910217,15.4093969 0.991702786,12.8154815 1.5550547,10.0546642 C2.20786791,6.85775191 2.9065676,3.44261878 3.09011352,2.57054448 C3.43813416,0.911465015 4.97677606,0.274255521 6.81500929,0.268245201 L36.9438184,0.268245201 C36.6517399,1.68783653 34.5216594,12.0566786 34.1742167,13.7685796 L34.1742167,13.7685796 Z M6.81500929,5.34942761e-05 C4.93262332,-0.00591785346 3.21332508,0.682610526 2.82739319,2.5157581 C2.46030134,4.26314303 0.0329411765,16.1755971 0.0329411765,16.1755971 L0,16.3363732 C0,16.3363732 30.4749804,16.3393783 30.487001,16.3393783 C32.3475418,16.3393783 34.0504272,15.7355723 34.4372838,13.8222101 C34.6233725,12.9034402 35.3240372,9.48784479 35.9778906,6.30237523 C36.6322064,3.11679009 37.2384396,0.16711001 37.2392487,0.16109969 L37.2720743,5.34942761e-05 L6.81500929,5.34942761e-05 Z M18.8873148,9.01811517 C18.9405986,8.68997482 18.9971187,8.40853003 19.058031,8.16626791 C19.2223901,7.51842477 19.6369866,7.09689329 20.105676,7.09689329 C20.2537379,7.09689329 20.395096,7.11954757 20.5666213,7.1739872 L20.6671785,6.61167554 C20.5202724,6.54186336 20.3870052,6.51030918 20.2302745,6.51030918 C19.9255975,6.51030918 19.6369866,6.64322972 19.4173787,6.89184892 C19.3160124,7.00962807 19.2692012,7.0654547 19.135934,7.27535356 L19.1605531,7.16682105 L19.2538287,6.67466832 L19.2692012,6.59630299 L18.5658782,6.59630299 C18.5658782,6.63502332 18.557903,6.65848669 18.557903,6.67466832 C18.5425304,6.79984479 18.4957193,7.10382828 18.4178163,7.58858369 L18.2612012,8.54168173 L18.0738411,9.5259872 L17.9013911,10.4011822 L17.8861342,10.4781606 L18.6830795,10.4781606 C18.7140557,10.072464 18.731162,9.99467657 18.8873148,9.01811517 L18.8873148,9.01811517 Z M9.69060062,5.92372508 C10.0272941,5.92372508 10.2303736,5.68192528 10.2303736,5.29160124 C10.2303736,5.06517399 10.1135191,4.95537007 9.8792322,4.95537007 C9.5350258,4.95537007 9.34026832,5.19023488 9.34026832,5.58841858 C9.34026832,5.62713891 9.34026832,5.6585775 9.34685655,5.6982225 C9.37841073,5.84547534 9.4953808,5.92372508 9.69060062,5.92372508 L9.69060062,5.92372508 Z M11.0349474,9.00193354 L11.2918885,7.54870753 L11.3148896,7.43162188 C11.5583075,7.16682105 11.8631001,7.02500062 12.2300764,7.02500062 C12.8401238,7.02500062 13.1211063,7.33834634 13.1211063,7.97139484 C13.1211063,8.62767554 12.9020764,9.34625552 12.5816801,9.71323179 C12.3783695,9.93931228 12.1048999,10.0580161 11.7686687,10.0580161 C11.2616058,10.0580161 11.0036244,9.80650733 11.0036244,9.29944438 C11.0036244,9.19692219 11.0187657,9.1032999 11.0349474,9.00193354 L11.0349474,9.00193354 Z M9.73047678,12.1260285 C9.72192363,12.1579294 9.72192363,12.1579294 9.70678225,12.212947 L10.5201404,12.212947 C10.5268442,12.1579294 10.5268442,12.1260285 10.5268442,12.1192091 C10.5419856,11.9549655 10.5899525,11.6744454 10.6522518,11.2831967 L10.8323302,10.1265569 L10.8480495,10.034206 C11.0349474,10.4399026 11.2686563,10.5807983 11.7850815,10.5807983 C12.6051434,10.5807983 13.2134572,10.190012 13.5815893,9.41664561 C13.8081321,8.92449288 13.9413994,8.3698097 13.9413994,7.87719463 C13.9413994,6.98674262 13.4717853,6.51030918 12.5970526,6.51030918 C12.0818989,6.51030918 11.6998968,6.65039587 11.3250609,6.97865181 L11.3402023,6.89184892 L11.3782291,6.67466832 L11.3948731,6.59630299 L10.699063,6.59630299 C10.6915501,6.64322972 10.6915501,6.64322972 10.6915501,6.67466832 C10.6686646,6.84665593 10.6052095,7.26044334 10.4956367,7.9163773 L10.2690939,9.25991496 L10.011806,10.6591637 C9.86258824,11.4713659 9.76896594,11.9549655 9.73047678,12.1260285 L9.73047678,12.1260285 Z M8.49547162,10.4781606 L9.30050774,10.4781606 C9.30721156,10.4479934 9.30721156,10.4165548 9.30721156,10.4011822 C9.32373994,10.2832875 9.37008875,9.98612343 9.44221259,9.5259872 L9.60506914,8.54168173 L9.78422291,7.58858369 C9.8792322,7.10382828 9.93413416,6.79984479 9.96499484,6.67466832 C9.97216099,6.65848669 9.98048297,6.63502332 9.98684004,6.59630299 L9.18365325,6.59630299 C9.1751001,6.63502332 9.1751001,6.65848669 9.1751001,6.67466832 C9.16042105,6.79984479 9.11407224,7.10382828 9.03501342,7.58858369 L8.87886068,8.54168173 L8.69150052,9.5259872 L8.51939732,10.4011822 L8.49547162,10.4781606 Z M4.94799587,7.23455273 L4.87460062,7.23455273 L4.89101342,7.11954757 C4.964871,6.75176223 5.02994427,6.42443096 5.07883591,6.13824727 C5.16899071,5.60829886 5.23475748,5.26478596 5.26700516,5.10990464 C5.27532714,5.09326068 5.27532714,5.06864149 5.28411146,5.02772508 L4.37736223,5.02772508 L4.35898452,5.10990464 L4.15474923,6.39253003 L3.93525697,7.75768173 L3.6802807,9.11393354 L3.42807843,10.3978303 L3.4118968,10.4781606 L4.32777709,10.4781606 C4.33471207,10.4454506 4.33471207,10.4127406 4.33471207,10.3978303 C4.35124045,10.3147261 4.3926192,10.0789366 4.45757688,9.68606976 C4.47352735,9.57961775 4.51594634,9.3348128 4.58055728,8.95003674 C4.62216718,8.68870341 4.66192776,8.44343612 4.70295975,8.23099443 C4.75173581,7.95267038 4.76028896,7.92157853 4.77670175,7.76496347 L4.8822291,7.76496347 C5.04508566,7.75768173 5.39772962,7.75768173 5.9291806,7.75768173 C6.46005366,7.75768173 7.01600826,7.75768173 7.17077399,7.76496347 L7.27711042,7.76496347 C7.26925077,7.80657337 7.26092879,7.83003674 7.26092879,7.8466807 C7.25330031,7.87892838 7.22821878,8.01103983 7.18776471,8.23099443 L7.0566935,8.95003674 C6.99104231,9.3101936 6.94215067,9.54598308 6.91730031,9.68606976 C6.85338287,10.0624083 6.81107946,10.2993536 6.78842518,10.3978303 L6.7712033,10.4781606 L7.69459649,10.4781606 C7.7040743,10.4288066 7.7040743,10.4288066 7.7040743,10.3978303 C7.71863777,10.30756 7.78440454,9.88267657 7.915129,9.11393354 L8.14386791,7.75768173 L8.39757276,6.39253003 C8.5366192,5.61650526 8.61706502,5.19162188 8.63451806,5.10990464 C8.64318679,5.08516987 8.64318679,5.08516987 8.65786584,5.02772508 L7.73493498,5.02772508 C7.69459649,5.3376033 7.68627451,5.38649494 7.55531889,6.10599959 C7.49001445,6.46557853 7.44077606,6.8011162 7.39165325,7.11954757 L7.37593395,7.23455273 L7.28566357,7.23455273 L6.13295356,7.25061878 L4.94799587,7.23455273 Z M16.283806,7.00292425 C16.7840495,7.00292425 17.0423777,7.18982208 17.0423777,7.5728644 C17.0423777,7.64984272 17.0342869,7.7367612 17.0185676,7.83003674 L17.0041197,7.93174985 L16.9325738,7.93174985 C16.7924871,7.93984066 16.5506873,7.93984066 16.1990836,7.93984066 L16.0739071,7.93984066 C15.5894985,7.93984066 15.3004252,7.93984066 15.2140846,7.93174985 L15.1280908,7.93174985 C15.2915253,7.28344438 15.6516821,7.00292425 16.283806,7.00292425 L16.283806,7.00292425 Z M15.7214943,10.5646167 C16.205903,10.5646167 16.7375851,10.4948045 17.190902,10.3697437 L17.309259,9.74478596 C16.8389515,9.94821218 16.4178824,10.034206 15.9798225,10.034206 C15.3077069,10.034206 14.9492838,9.69832157 14.9492838,9.07301713 C14.9492838,8.82312652 14.9564499,8.73632363 15.0262621,8.38518225 L15.1058989,8.3766291 C15.2540764,8.3698097 15.6363096,8.3698097 16.260805,8.3698097 C16.9960289,8.3698097 17.4336264,8.3698097 17.5740599,8.3766291 L17.6600537,8.38518225 C17.7376099,8.03438762 17.7856925,7.72867038 17.7856925,7.53333498 C17.7856925,6.853013 17.3390795,6.51030918 16.4408834,6.51030918 C15.4963385,6.51030918 14.8543901,6.87000372 14.5112239,7.59632776 C14.2849123,8.0802741 14.1511827,8.65795831 14.1511827,9.17438349 C14.1511827,10.1125713 14.6683013,10.5646167 15.7214943,10.5646167 L15.7214943,10.5646167 Z M31.1692879,7.29199752 C31.3744479,7.11180351 31.6545057,7.0182968 31.9976718,7.0182968 C32.262935,7.0182968 32.4830052,7.0654547 32.7639876,7.16682105 L32.7557812,7.2518902 C32.6856223,7.66648669 32.5609082,8.34634634 32.4671703,8.82312652 C32.4123839,9.06457957 32.3497379,9.27609659 32.2705635,9.44635046 C32.0998473,9.80650733 31.717614,10.0410254 31.3098369,10.0410254 C30.7640537,10.0410254 30.513354,9.76004293 30.513354,9.14317606 C30.513354,8.3766291 30.7794262,7.63504809 31.1692879,7.29199752 L31.1692879,7.29199752 Z M29.6934076,9.2296322 C29.6934076,10.1432008 30.1229143,10.5646167 31.0372921,10.5646167 C31.7090609,10.5646167 32.0692178,10.3777189 32.3807141,9.84603674 C32.3658039,9.97930402 32.3573664,10.0248438 32.3340186,10.1508293 C32.3097461,10.3147261 32.3097461,10.3543711 32.3029267,10.4781606 L33.0291352,10.4781606 L33.0291352,10.4233742 C33.0291352,10.080208 33.0908566,9.54933498 33.2322147,8.68176842 C33.3496471,7.97139484 33.4275501,7.54177255 33.6391827,6.40050526 C33.7562683,5.76029061 33.8489659,5.29160124 33.9124211,4.97871785 L33.9277936,4.92393148 L33.1309639,4.92393148 L33.1227575,4.98553725 C33.0994097,5.15879628 33.0597647,5.43215026 32.997581,5.80710175 C32.9427946,6.15153932 32.9044211,6.40050526 32.8728669,6.55677358 L32.8579567,6.65039587 C32.7405243,6.61167554 32.7013416,6.60358473 32.6378865,6.58069928 C32.4433602,6.53377255 32.2012136,6.51030918 31.9581424,6.51030918 C31.0998225,6.51030918 30.4511703,6.90155789 30.0756409,7.64984272 C29.8262126,8.13529164 29.6934076,8.69795005 29.6934076,9.2296322 L29.6934076,9.2296322 Z M25.9159216,9.42462085 C25.7277523,9.80650733 25.3445944,10.0410254 24.914741,10.0410254 C24.4856966,10.0410254 24.251063,9.83124211 24.251063,9.43953106 C24.251063,9.11127513 24.3927678,8.81503571 24.6264768,8.63541961 C24.8443509,8.46308524 25.1254489,8.4012483 25.6022291,8.4012483 C25.7661259,8.4012483 25.8827492,8.4012483 26.117614,8.42471166 L26.1959794,8.43187781 C26.117614,8.86947534 26.0325449,9.17438349 25.9159216,9.42462085 L25.9159216,9.42462085 Z M26.2815108,7.97937007 C26.0239917,7.96284169 25.6412962,7.94839381 25.4464231,7.94839381 C24.2041362,7.94839381 23.4860186,8.53324417 23.4860186,9.54933498 C23.4860186,10.2363608 23.8594675,10.5646167 24.6495934,10.5646167 C25.2825263,10.5646167 25.6961981,10.3543711 26.0473395,9.83794592 C26.0171723,10.0644888 25.9852714,10.3062885 25.9852714,10.4165548 L25.9852714,10.4781606 L26.6875542,10.4781606 C26.6813127,10.4318118 26.6813127,10.3850006 26.6813127,10.3543711 C26.6813127,10.0027674 26.7592157,9.40127307 26.8991868,8.64304809 L27.0240165,7.93174985 C27.0870093,7.58858369 27.1108194,7.43162188 27.1108194,7.29199752 C27.1108194,6.75303364 26.6957606,6.51030918 25.7661259,6.51030918 C25.5476739,6.51030918 25.3126935,6.52614407 25.0793313,6.5491451 C24.8060929,6.58069928 24.6094861,6.59630299 24.4856966,6.59630299 C24.4693994,6.59630299 24.445936,6.59630299 24.4157688,6.58832776 L24.2583447,7.22981383 C24.7673725,7.08845573 25.1572343,7.02500062 25.5629309,7.02500062 C26.0943818,7.02500062 26.3521321,7.1821936 26.3521321,7.49461465 C26.3521321,7.58858369 26.3521321,7.61158473 26.2976925,7.89349185 L26.2815108,7.97937007 Z M20.2350134,9.15092012 C20.2350134,9.56516987 20.3048256,9.82257337 20.4772755,10.072464 C20.735257,10.4233742 21.0703323,10.5646167 21.6811889,10.5646167 C22.1102332,10.5646167 22.5319959,10.4948045 22.9297172,10.3611905 L23.0395212,9.76824933 C22.7280248,9.92440206 22.2745924,10.034206 21.923451,10.034206 C21.3299319,10.034206 21.0400495,9.71323179 21.0400495,9.04874469 C21.0400495,8.3698097 21.2899401,7.61158473 21.6101053,7.30690774 C21.804516,7.11954757 22.0949763,7.02500062 22.4762848,7.02500062 C22.7981837,7.02500062 23.1496718,7.08845573 23.4779278,7.20554138 L23.5864603,6.57203055 L23.5082105,6.5648644 C23.0863323,6.52614407 22.8211847,6.51030918 22.5717564,6.51030918 C21.8604582,6.51030918 21.4232074,6.64322972 21.0787699,6.95518844 C20.8834345,7.12717606 20.7280908,7.32979319 20.6181713,7.55668277 C20.3682807,8.04964458 20.2350134,8.61160949 20.2350134,9.15092012 L20.2350134,9.15092012 Z M28.3440908,9.01811517 C28.3993395,8.68997482 28.4538947,8.40853003 28.5173498,8.16626791 C28.680322,7.51842477 29.0949185,7.09689329 29.5623364,7.09689329 C29.7117853,7.09689329 29.8517564,7.11954757 30.0237441,7.1739872 L30.1255728,6.61167554 C29.9769329,6.54186336 29.844128,6.51030918 29.688322,6.51030918 C29.3835294,6.51030918 29.0949185,6.64322972 28.875195,6.89184892 C28.7739443,7.00962807 28.7279422,7.0654547 28.5938658,7.27535356 L28.6173292,7.16682105 L28.7104892,6.67466832 L28.7279422,6.59630299 L28.0238101,6.59630299 C28.0238101,6.63502332 28.0158349,6.65848669 28.0158349,6.67466832 C28.0004623,6.79984479 27.9536512,7.10382828 27.8770196,7.58858369 L27.7204045,8.54168173 L27.5308483,9.5259872 L27.36071,10.4011822 L27.3444128,10.4781606 L28.140549,10.4781606 C28.1724499,10.072464 28.1886316,9.99467657 28.3440908,9.01811517 L28.3440908,9.01811517 Z" id="Fill-3" fill="#FEFEFE"></path>
                    </g>
                </g>
            </g>
        </g>
    </g>
</svg>